<?xml version="1.0" encoding="utf-8"?>
<!-- Generator: Adobe Illustrator 25.2.1, SVG Export Plug-In . SVG Version: 6.00 Build 0)  -->
<svg version="1.1" id="Layer_1" xmlns="http://www.w3.org/2000/svg" xmlns:xlink="http://www.w3.org/1999/xlink" x="0px" y="0px"
	 viewBox="0 0 1920 850" style="enable-background:new 0 0 1920 850;" xml:space="preserve">
<style type="text/css">
	.st0{opacity:0.43;fill:#fbe290;enable-background:new    ;}
	.st1{opacity:0.54;fill:#05c3ff;enable-background:new    ;}
	.st2{fill:url(#Path_1_1_);}
</style>
<path class="st0" d="M1917.7,372.6C1738.5,457.2,1248.4,688,1248.4,688C567.6,996.8,5.5,514.9,5.5,514.9V-0.3
	c128,0,1582.5,0,1911.1,0L1917.7,372.6z"/>
<path class="st1" d="M0-0.3v516.8c0,0,469.3,555.5,1066,232.4l642.9-361V-0.3C1708.9-0.3,143.4,5.2,0-0.3z"/>
<linearGradient id="Path_1_1_" gradientUnits="userSpaceOnUse" x1="357.1632" y1="1003.1274" x2="2274.8633" y2="1003.1274" gradientTransform="matrix(1 0 0 -1 0 1398.5)">
	<stop  offset="0" style="stop-color:#05c3ff"/>
	<stop  offset="0.4734" style="stop-color:#4bcce0"/>
	<stop  offset="1" style="stop-color:#fbe290"/>
</linearGradient>
<path id="Path_1" class="st2" d="M2.8-0.3v515.2c0,0,456.1,481.9,1159.4,172.5l758.3-345.6V-0.3C1920.4-0.3,10.9-0.3,2.8-0.3z"/>
</svg>
