<?xml version="1.0" encoding="utf-8"?>
<!-- Generator: Adobe Illustrator 25.2.1, SVG Export Plug-In . SVG Version: 6.00 Build 0)  -->
<svg version="1.1" id="Layer_1" xmlns="http://www.w3.org/2000/svg" xmlns:xlink="http://www.w3.org/1999/xlink" x="0px" y="0px"
	 viewBox="0 0 253 78.5" style="enable-background:new 0 0 253 78.5;" xml:space="preserve">
<style type="text/css">
	.st0{fill:#4B286D;}
	.st1{fill:#66CC00;}
</style>
<polyline class="st0" points="147.2,31.2 147.2,26.2 129.1,26.2 129.1,52.3 147.2,52.3 147.2,47 136.4,47 136.4,41.2 145.4,41.2 
	145.4,36.1 136.4,36.1 136.4,31.2 147.2,31.2 "/>
<polyline class="st0" points="179.2,47.2 167.9,47.2 167.9,26.2 160.4,26.2 160.4,52.3 179.2,52.3 179.2,47.2 "/>
<path class="st0" d="M239,36.1c-5-1.1-6.8-1.3-6.8-3.3s2.5-2.4,3.9-2.4c2.7,0,5.4,0.7,7.8,2l2-4.8c-3.1-1.5-6.5-2.3-10-2.2
	c-6.9,0-11.6,2.8-11.7,8.3c-0.2,5,3.9,6.9,7.6,7.6c3.7,0.8,7.2,1.4,7.3,3.5c0.1,2-1.7,2.8-5,2.8c-3.1-0.1-6.2-0.9-9-2.3l-1.7,5.2
	c3.3,1.4,6.8,2.2,10.3,2.2c4.9,0,8.5-0.8,11.1-3.2c1.6-1.5,2.5-3.5,2.4-5.7C247.4,39.8,244.8,37.4,239,36.1"/>
<polyline class="st0" points="118.6,31.3 118.6,26.2 95.8,26.2 95.8,31.3 103.5,31.3 103.5,52.3 110.8,52.3 110.8,31.3 118.6,31.3 
	"/>
<path class="st0" d="M204.6,26.2v16.6c0,0.7,0,1.5-0.1,2.2c-0.2,1.6-1.8,2.5-4.2,2.5c-1.8,0-3.1-0.6-3.8-1.5
	c-0.4-0.9-0.5-1.8-0.5-2.8v-17h-7.7v18c0,2.5,0.3,3.6,1.5,5c1.9,2.3,5.5,3.6,10.5,3.6h0.3c6.7,0,10.1-2.6,11.1-5
	c0.5-1.2,0.5-1.7,0.5-4.1V26.2H204.6"/>
<path class="st0" d="M99.2,19L56,27.6v3h0.1c28.5-6.9,43-11.1,43.2-11.1c0.1,0,0.2-0.1,0.2-0.3c0,0,0,0,0,0
	C99.5,19.1,99.4,19,99.2,19C99.3,19,99.3,19,99.2,19"/>
<path class="st1" d="M63,21.4c0.7-0.4,0.9-0.2,0.7,0.3c-0.3,0.8-1.8,5.5-12.7,14.4c-2.8,2.3-5.8,4.3-8.9,6
	C48.7,32.7,58.5,24.3,63,21.4 M64.1,18.1c-2.1,0.1-6,3.2-8.1,5.1c-8.5,7.4-14.8,14.1-19.4,21.2C25.6,50.1,14.3,55,2.6,59l-0.3,0.1
	L0,65.4l1.3-0.5c11-4.3,21.8-9.1,32.3-14.6c-0.6,1.5-1,3.2-1,4.8c0,1,0.2,2,0.6,3c0.8,1.9,2.3,3.3,4.2,4c3,1.2,7.1,1.2,11.7-0.2
	c11.9-3.6,26-14.7,29-16.9l0.1-0.1c0.1-0.1,0.1-0.2,0.1-0.3c-0.1-0.1-0.2-0.1-0.3-0.1l0,0l-0.2,0.1c-3.3,2.1-19.3,11.6-29.7,14.4
	c-5.3,1.4-9.3,0.6-10.9-1.5c-0.5-0.8-0.8-1.8-0.8-2.7c0-2.1,1-4.8,2.9-7.7c1.8-1,3.4-2,4.9-2.9C54.4,38.5,66,27.4,66.6,20.6
	c0,0,0-0.1,0-0.2c0-0.6-0.3-1.2-0.7-1.6C65.4,18.4,64.8,18.1,64.1,18.1L64.1,18.1z"/>
<polyline class="st0" points="55.9,27.6 10.4,37.4 8.7,42.1 56,30.6 56.1,30.6 56.1,27.6 55.9,27.6 "/>
</svg>
