<svg id="Layer_1" data-name="Layer 1" xmlns="http://www.w3.org/2000/svg" width="6.2in" height="1.09in" viewBox="0 0 446.09 78.39"><title>TELUS_2017_Pure_EN_Hor_RGB</title><polyline points="147.13 31.2 147.13 26.12 129.01 26.12 129.01 52.25 147.13 52.25 147.13 46.95 136.35 46.95 136.35 41.16 145.31 41.16 145.31 36.09 136.35 36.09 136.35 31.2 147.13 31.2" style="fill:#4b286d"/><polyline points="179.08 47.1 167.76 47.1 167.76 26.12 160.33 26.12 160.33 52.25 179.08 52.25 179.08 47.1" style="fill:#4b286d"/><path d="M238.88,36.08c-5-1.13-6.76-1.26-6.76-3.25S234.6,30.4,236,30.4a17.15,17.15,0,0,1,7.81,2l2-4.81a21.36,21.36,0,0,0-10-2.2c-6.91,0-11.55,2.8-11.74,8.27-.2,5,3.85,6.85,7.58,7.62s7.23,1.38,7.31,3.51c.07,2-1.7,2.81-5,2.81A23.07,23.07,0,0,1,225,45.34l-1.71,5.22a26.12,26.12,0,0,0,10.34,2.23c4.91,0,8.49-.76,11.13-3.24a7.51,7.51,0,0,0,2.43-5.71c0-4.13-2.57-6.46-8.34-7.76" style="fill:#4b286d"/><polyline points="118.48 31.28 118.48 26.12 95.69 26.12 95.69 31.28 103.39 31.28 103.39 52.25 110.77 52.25 110.77 31.28 118.48 31.28" style="fill:#4b286d"/><path d="M204.41,26.12v16.6a12.91,12.91,0,0,1-.08,2.17c-.23,1.58-1.77,2.5-4.22,2.53-1.81,0-3.14-.56-3.76-1.51a5.51,5.51,0,0,1-.46-2.76v-17h-7.7v18c0,2.5.33,3.62,1.46,5,1.86,2.33,5.48,3.55,10.48,3.55h.27c6.68,0,10.13-2.61,11.13-5,.5-1.18.54-1.74.54-4.13V26.12h-7.65" style="fill:#4b286d"/><path d="M99.17,19,56,27.57v3l.14,0c28.53-6.93,43-11.1,43.16-11.13a.23.23,0,0,0,.2-.27.24.24,0,0,0-.31-.17" style="fill:#4b286d"/><path d="M62.93,21.37c.67-.43.86-.16.66.32-.32.77-1.78,5.45-12.65,14.37a62,62,0,0,1-8.94,6c6.69-9.37,16.45-17.84,20.93-20.74m1.13-3.23c-2.1.12-6,3.23-8.12,5.08-8.5,7.35-14.81,14.11-19.41,21.18A235.07,235.07,0,0,1,2.62,58.93l-.29.1L0,65.31l1.33-.52A322.5,322.5,0,0,0,33.58,50.2a13.86,13.86,0,0,0-1,4.83,8.22,8.22,0,0,0,.55,3,7.2,7.2,0,0,0,4.18,4c3,1.19,7.06,1.22,11.71-.19,11.87-3.6,26-14.65,29-16.85l.11-.08a.23.23,0,0,0,.08-.31.24.24,0,0,0-.32-.06h0l-.15.09C74.49,46.69,58.5,56.19,48.1,59c-5.29,1.42-9.33.64-10.85-1.49a4.53,4.53,0,0,1-.78-2.72c0-2.09,1-4.76,2.89-7.72,1.75-1,3.38-2,4.85-2.89C54.35,38.45,66,27.37,66.53,20.61c0,0,0-.1,0-.15a2.36,2.36,0,0,0-.7-1.63A2.26,2.26,0,0,0,64.06,18.14Z" style="fill:#6c0"/><polyline points="55.84 27.6 10.41 37.36 8.65 42.08 55.98 30.58 56.06 30.56 56.06 27.55 55.84 27.6" style="fill:#4b286d"/><path d="M298.55,26.15h11.11c3,0,7.6,1.06,7.6,7.31,0,4.57-3,7.16-8.19,7.16h-8.92V52.25h-1.61Zm1.61,13.08h9.17c4.71,0,6.32-3.11,6.32-5.81,0-1.94-.88-5.88-6.1-5.88h-9.39Z" style="fill:#4b286d"/><path d="M334.76,52.25h-1.39v-4h-.07a7,7,0,0,1-6.72,4.46c-6.62,0-6.69-5.3-6.69-7.6V33.46h1.39V45.34c0,1.94.22,6.14,5.34,6.14,4.2,0,6.76-3.25,6.76-7.86V33.46h1.39Z" style="fill:#4b286d"/><path d="M340.24,37.63h.11c.73-2.45,3.8-4.42,7.2-4.28v1.39a6.36,6.36,0,0,0-5.19,1.83c-1.39,1.43-2,2.59-2.12,5.41V52.25h-1.39V33.46h1.39Z" style="fill:#4b286d"/><path d="M349.55,43c-.07,4.42,2.27,8.44,6.91,8.44a6.49,6.49,0,0,0,6.72-5.59h1.39c-.73,4.38-3.65,6.8-8.11,6.8-5.48,0-8.37-4.31-8.3-9.5S350.79,33,356.46,33c5.88,0,8.51,4.64,8.26,10Zm13.78-1.21c-.07-3.95-2.56-7.6-6.87-7.6s-6.62,3.87-6.91,7.6Z" style="fill:#4b286d"/><path d="M369.83,39.38V52.25h-1.61V26.15H384.6v1.39H369.83V38h13.3v1.39Z" style="fill:#4b286d"/><path d="M387.08,29.92V26.15h1.39v3.76Zm0,22.33V33.46h1.39V52.25Z" style="fill:#4b286d"/><path d="M393.21,26.15h1.39V37.44h.07c1.06-2.92,4.09-4.42,7.13-4.42,5.52,0,8.15,4.17,8.15,9.39,0,9-5.55,10.27-8.15,10.27A7.29,7.29,0,0,1,394.68,48h-.07v4.2h-1.39Zm15.35,16.26c0-4.17-2.27-8.19-6.76-8.19-4.9,0-7.16,3.47-7.16,8.19s2,9.06,7.16,9.06C406.74,51.48,408.56,46.73,408.56,42.42Z" style="fill:#4b286d"/><path d="M414.59,37.63h.11c.73-2.45,3.8-4.42,7.2-4.28v1.39a6.35,6.35,0,0,0-5.19,1.83c-1.39,1.43-2,2.59-2.12,5.41V52.25H413.2V33.46h1.39Z" style="fill:#4b286d"/><path d="M423.91,43c-.07,4.42,2.27,8.44,6.91,8.44a6.49,6.49,0,0,0,6.72-5.59h1.39c-.73,4.38-3.65,6.8-8.11,6.8-5.48,0-8.37-4.31-8.29-9.5S425.15,33,430.81,33c5.88,0,8.52,4.64,8.26,10Zm13.78-1.21c-.07-3.95-2.56-7.6-6.87-7.6s-6.62,3.87-6.91,7.6Z" style="fill:#4b286d"/><path d="M441.09,33.38H440V33h2.54v.36h-1.06V36.2h-.42Z" style="fill:#4b286d"/><path d="M442.93,33h.58l1,2.66,1-2.66h.58V36.2h-.4V33.56h0l-1,2.64h-.36l-1-2.64h0V36.2h-.4Z" style="fill:#4b286d"/><rect x="271.71" width="1" height="78.39" style="fill:#4b286d"/></svg>